<?xml version="1.0" encoding="UTF-8"?>
<svg width="694px" height="317px" viewBox="0 0 694 317" version="1.1" xmlns="http://www.w3.org/2000/svg" xmlns:xlink="http://www.w3.org/1999/xlink">
    <!-- Generator: Sketch 52.4 (67378) - http://www.bohemiancoding.com/sketch -->
    <title>VIP</title>
    <desc>Created with Sketch.</desc>
    <defs>
        <linearGradient x1="0%" y1="50%" x2="100%" y2="50%" id="linearGradient-1">
            <stop stop-color="#FFE2AA" offset="0%"></stop>
            <stop stop-color="#FCE8B1" offset="100%"></stop>
        </linearGradient>
        <path d="M16,0 L678,0 C686.836556,-1.623249e-15 694,7.163444 694,16 L694,301 C694,309.836556 686.836556,317 678,317 L16,317 C7.163444,317 1.082166e-15,309.836556 0,301 L-1.77635684e-15,16 C-2.85852284e-15,7.163444 7.163444,1.623249e-15 16,0 Z" id="path-2"></path>
    </defs>
    <g id="Page-1" stroke="none" stroke-width="1" fill="none" fill-rule="evenodd">
        <g id="iPhone-8-Copy-4" transform="translate(-28.000000, -158.000000)">
            <g id="VIP" transform="translate(28.000000, 158.000000)">
                <mask id="mask-3" fill="white">
                    <use xlink:href="#path-2"></use>
                </mask>
                <use id="Mask" fill="url(#linearGradient-1)" fill-rule="nonzero" xlink:href="#path-2"></use>
                <g id="vip" mask="url(#mask-3)" fill="#FFEFC8" fill-rule="nonzero">
                    <g transform="translate(336.000000, 137.000000)" id="形状">
                        <path d="M194.407745,0.00019755509 L103.684144,179.999978 L65.074547,179.999978 L0,0.00019755509 L43.5037795,0.00019755509 L85.4667756,135.472565 L150.903766,0.00019755509 L194.407745,0.00019755509 Z M185.910893,179.999978 L199.57382,0.00019755509 L238.183417,0.00019755509 L224.52049,179.999978 L185.910893,179.999978 Z M255.743607,90.3151095 L367.176873,90.3151095 L367.176872,90.3151095 C383.363481,90.3151102 396.485411,77.2849393 396.485411,61.2113 L396.485411,61.2112978 C396.485411,46.0883792 384.139628,33.8287367 368.910228,33.8287367 C368.906451,33.8287367 368.902674,33.8287374 368.898897,33.828739 L260.014684,33.828739 L262.563738,0 L366.57647,0 L366.576468,6.7445983e-14 C401.052017,-1.49644776e-06 428.999999,27.7527561 428.999999,61.9874835 L429,61.9762333 C429,94.7651832 402.235735,121.347435 369.216133,121.353763 L291.951534,121.353763 L287.623799,180 L248.968797,180 L255.743624,90.3151314 L255.743607,90.3151095 Z"></path>
                    </g>
                </g>
                <g id="11111111" opacity="0.552013579" mask="url(#mask-3)">
                    <g transform="translate(602.000000, 30.000000)" id="分组">
                        <g>
                            <path d="M18.28932,21.98343 C14.658084,21.9834017 11.3843871,24.1707837 9.99475356,27.5256003 C8.60512007,30.8804168 9.37321552,34.7419917 11.9408771,37.3096734 C14.5085388,39.877355 18.3701077,40.6454806 21.7249351,39.2558732 C25.0797624,37.8662659 27.26717,34.592586 27.26717,30.96135 C27.26717,26.003009 23.247661,21.9834687 18.28932,21.98343 Z M18.28932,34.65707 L14.59332,30.96107 L18.28932,27.26507 L21.98532,30.96107 L18.28932,34.65707 Z" id="形状" fill="#B89E5D" fill-rule="nonzero"></path>
                            <path d="M17.87191,0.77987 C15.6566818,0.779841688 13.6595648,2.1142449 12.8118206,4.16084347 C11.9640764,6.20744203 12.4326557,8.56318854 13.9990586,10.1295914 C15.5654615,11.6959943 17.921208,12.1645736 19.9678065,11.3168294 C22.0144051,10.4690852 23.3488083,8.47196819 23.34878,6.25674 C23.34878,3.23194822 20.8967018,0.77987 17.87191,0.77987 Z M17.87191,8.5113 L15.61735,6.25674 L17.87191,4.00225 L20.1264,6.25674 L17.87191,8.5113 Z" id="形状" fill="#B89E5D" fill-rule="nonzero"></path>
                            <path d="M59.95227,32.28379 C57.3715923,32.2837617 55.045009,33.8383027 54.0574067,36.2225299 C53.0698045,38.6067571 53.6156757,41.3511353 55.4404804,43.1759601 C57.2652851,45.0007848 60.0096574,45.5466861 62.3938955,44.5591101 C64.7781335,43.571534 66.3327,41.2449677 66.3327,38.66429 C66.3327186,36.9720826 65.6605048,35.3491773 64.4639401,34.1525994 C63.2673753,32.9560216 61.6444774,32.28379 59.95227,32.28379 Z M59.95227,41.29076 L57.3258,38.66429 L59.95227,36.03775 L62.57874,38.66429 L59.95227,41.29076 Z" id="形状" fill="#B89E5D" fill-rule="nonzero"></path>
                            <path d="M50.29955,41.22811 C44.9260582,41.2283033 40.5701211,45.5845016 40.57025,50.9579933 C40.5703789,56.3314851 44.9265249,60.6874744 50.3000167,60.68741 C55.6735084,60.6873456 60.02955,56.3312518 60.02955,50.95776 C60.02955,48.3772357 59.0044168,45.9024081 57.1796778,44.0777348 C55.3549387,42.2530614 52.8800743,41.2280172 50.29955,41.22811 Z M50.49765,54.08655 L47.12827,50.71724 L50.49765,47.34779 L53.86696,50.7171 L50.49765,54.08655 Z" id="形状" fill="#B89E5D" fill-rule="nonzero"></path>
                            <path d="M51.55822,21.29477 C49.2115156,21.2947417 47.0958671,22.7083405 46.1978026,24.8764046 C45.2997381,27.0444686 45.796117,29.5400323 47.4554776,31.1994129 C49.1148382,32.8587935 51.6103959,33.3552026 53.7784708,32.4571642 C55.9465456,31.5591259 57.36017,29.4434944 57.36017,27.09679 C57.3601886,25.5580051 56.7489216,24.0822384 55.6608429,22.9941466 C54.5727642,21.9060547 53.0970049,21.29477 51.55822,21.29477 Z M51.55822,29.48477 L49.17017,27.09679 L51.55857,24.70846 L53.9469,27.09679 L51.55822,29.48477 Z" id="形状" fill="#B89E5D" fill-rule="nonzero"></path>
                            <path d="M22.64514,38.7464 C22.64514,38.7464 13.15405,46.95145 5.09733,36.98079 C0.47992,30.72979 -1.15367,22.36612 0.82838,16.00627 C2.81043,9.64642 6.79623,5.11602 11.80571,3.00335 C11.80571,3.00335 8.08129,9.47212 14.55006,13.27823 C17.9963618,14.6314025 21.8982597,13.0433302 23.42011,9.66812 C24.1117431,8.14462089 24.1009642,6.39454553 23.3906174,4.87968139 C22.6802706,3.36481726 21.3417218,2.23735685 19.72817,1.7948 C17.98027,1.2068 13.3574,3.1178 13.3574,3.1178 C13.3574,3.1178 16.77032,-2.93797 24.59058,1.8298 C25.61699,2.59756 26.31013,2.74456 27.90158,1.70765 C29.92717,0.5642 38.19284,-0.55748 42.83209,6.93497 C43.73593,8.67741 44.13773,11.44038 45.32472,11.41861 C46.51171,11.39684 53.08401,13.03561 53.03389,18.63106 C53.0187,21.4158 52.26921,22.31264 52.74528,23.1399 C52.74528,23.1399 52.18878,24.06537 50.25916,24.15784 C49.6178681,24.0653223 48.9710765,24.016071 48.32317,24.01042 C47.86327,24.12494 48.8397,21.98098 46.81243,23.11239 C44.60743,24.37022 42.54894,29.17278 45.11353,32.73389 C47.13912,35.52689 50.74923,36.785 55.0291,34.48172 C57.43192,32.62406 57.15199,39.02745 58.62402,43.44368 C58.7867,43.93186 59.03296,44.83969 58.0951,44.66952 C57.092,44.48752 48.24722,42.57757 48.24722,42.57757 C48.24722,42.57757 47.97226,40.16642 42.27118,43.54784 C38.59576,45.75284 35.11088,52.83719 37.09293,57.6779 C38.55509,61.24888 40.21297,64.08129 45.21153,68.60623 C49.06671,72.37965 55.99853,79.84487 55.75871,84.61481 C55.80232,88.07785 55.67163,92.34687 44.30223,96.55044 C41.1005,97.39989 31.56069,99.90463 25.98491,93.13094 C25.17907,92.21618 24.85231,90.38659 28.44611,89.47183 C32.03991,88.55707 39.44521,87.79477 41.36188,79.71383 C41.64503,77.51401 42.12418,74.48658 36.52663,66.88521 C34.74065,64.09732 30.38455,57.45425 33.34667,47.82736 C34.43573,43.34036 38.85714,31.81836 33.43382,25.17536 C32.32299,23.75961 28.25004,18.3799 18.536,19.70836 C14.96404,20.5142 10.0744,23.40527 9.83969,27.91936" id="路径" fill="#B89E5D"></path>
                        </g>
                        <g transform="translate(4.600000, 57.700000)">
                            <text id="JIAFU-FINANCIAL-CONSU" fill="#707070" transform="translate(2.760812, 14.296590) rotate(90.000000) translate(-2.760812, -14.296590) " font-family="Helvetica" font-size="2.29809684" font-weight="normal">
                                <tspan x="-11.2391885" y="15.2921015">JIAFU FINANCIAL CONSU</tspan>
                            </text>
                            <g transform="translate(4.900000, 20.300000)" fill="#707070" id="路径">
                                <path d="M5.35563,2.02419 L4.44017,2.02419 L4.44017,1.55519 L7.08141,1.55519 L7.08141,0.32319 L8.01066,0.32319 L8.01066,1.55246 L8.47616,1.55246 L8.47616,2.02426 L8.01493,2.02426 C8.01493,2.07424 8.01493,2.11526 8.01493,2.156 C8.01441667,3.74686667 8.01343667,5.33771 8.01199,6.92853 C8.02225795,7.23849768 7.94488556,7.54507574 7.78876,7.81305 C7.58990662,8.14782956 7.24404756,8.36844587 6.85664,8.40763 C6.8314097,8.41530997 6.804159,8.41261836 6.78091872,8.40015084 C6.75767843,8.38768333 6.74036499,8.366468 6.73281,8.3412 C6.70075,8.26329 6.65875,8.18944 6.61892,8.10957 C6.9485701,7.8163141 7.11748891,7.3826916 7.07308,6.94372 C7.08302,5.66475 7.07931,4.38571 7.08106,3.10667 C7.08148,2.78784333 7.08213333,2.46899333 7.08302,2.15012 C7.08302,2.11232 7.08302,2.07459 7.08302,2.03112 L6.29678,2.03112 C6.29678,2.11078 6.29678,2.19051 6.29678,2.27017 C6.3012881,3.27637133 6.22193685,4.28119837 6.05955,5.27422 C5.93559236,6.11241741 5.67564799,6.92476128 5.28997,7.67921 C5.16681337,7.92726152 4.99877945,8.15035741 4.79437,8.33721 C4.72213,8.39944 4.66928,8.4126 4.58892,8.34015 C4.44052,8.20631 4.43492,8.21226 4.49533,8.02116 C4.76709487,7.13112384 4.96428924,6.22000717 5.08487,5.29725 C5.22872,4.27938 5.30579,3.25591 5.35521,2.22985 C5.35822,2.16692 5.35563,2.10357 5.35563,2.02419 Z"></path>
                                <polygon points="3.18871 1.09333 1.63317 1.09333 1.63317 5.91514 0.6979 5.91514 0.6979 0.63714 4.1139 0.63714 4.1139 5.91444 3.18871 5.91444"></polygon>
                                <path d="M2.42753,6.87232 C2.26765,7.09996 2.12331,7.33635 1.94873,7.54775 C1.6001435,7.96342842 1.12874228,8.25788569 0.60228,8.3888 C0.53074,8.40819 0.49553,8.39839 0.46774,8.32426 C0.38766,8.11041 0.38374,8.11104 0.5502,7.94626 C1.19645795,7.32792708 1.64413014,6.53129378 1.83624,5.65775 C1.91459409,5.24361846 1.94847972,4.82230094 1.93732,4.40097 C1.93641,3.49426 1.93977,2.58748 1.94138,1.68077 C1.94138,1.64283 1.94138,1.60496 1.94138,1.56177 L2.87238,1.56177 L2.87238,1.67251 C2.87189,2.72804 2.87476,3.78357 2.86839,4.8391 C2.86685,5.08935 2.83409,5.33953 2.8168,5.57515 C2.85567728,5.61364664 2.89070341,5.65584679 2.92138,5.70115 C3.35911333,6.52164333 3.79544667,7.34283667 4.23038,8.16473 C4.24326,8.18916 4.2546,8.21443 4.27287,8.25216 C4.22562,8.25426 4.18887,8.2572 4.15212,8.25727 C3.86169,8.25727 3.57112,8.25433 3.28076,8.25937 C3.20720185,8.26902513 3.13640067,8.22779877 3.10849,8.15906 C2.88379,7.72625 2.65286,7.29659 2.42753,6.87232 Z"></path>
                            </g>
                            <g transform="translate(4.900000, 0.000000)" fill="#707070">
                                <polygon id="路径" points="3.97593 1.02452 3.97593 0.56091 4.91736 0.56091 4.91736 1.02074 8.48939 1.02074 8.48939 1.48701 4.92639 1.48701 4.92639 1.95776 8.17117 1.95776 8.17117 2.41472 0.71211 2.41472 0.71211 1.96168 3.96844 1.96168 3.96844 1.49548 0.40117 1.49548 0.40117 1.02452"></polygon>
                                <path d="M0.70917,4.28757 L0.70917,2.82079 L8.16858,2.82079 L8.16858,4.28778 L0.70917,4.28757 Z M7.245,3.2844 L1.64983,3.2844 L1.64983,3.82053 L7.245,3.82053 L7.245,3.2844 Z" id="形状" fill-rule="nonzero"></path>
                                <path d="M8.17404,6.17043 L8.17404,8.48785 L4.76063,8.48785 L4.76063,6.17043 L8.17404,6.17043 Z M7.24759,6.63635 L5.69667,6.63635 L5.69667,8.01675 L7.24759,8.01675 L7.24759,6.63635 Z" id="形状" fill-rule="nonzero"></path>
                                <path d="M0.55804,8.66642 C0.50036,8.55064 0.41916,8.46041 0.42308,8.3741 C0.42672,8.29465 0.518,8.21625 0.57708,8.14268 C0.907661889,7.712068 1.14960163,7.22019444 1.28891,6.6955 C1.29381,6.67898 1.29521,6.66155 1.30046,6.63173 L0.40117,6.63173 L0.40117,6.16203 L0.65177,6.16203 C0.87857,6.16203 1.10537,6.15951 1.33203,6.16336 C1.4042,6.16462 1.43262,6.13956 1.43871,6.06844 C1.4476637,5.96623842 1.46182207,5.86455979 1.48113,5.7638 C1.48617,5.73706 1.51613,5.69429 1.53489,5.6938 C1.82455,5.68932 2.11435,5.69065 2.41864,5.69065 L2.37125,6.15818 L4.29548,6.15818 C4.32637483,6.69307748 4.29378433,7.22975166 4.19839,7.75698 C4.05044833,8.24092891 3.62899535,8.59063117 3.12606,8.64675 C3.07377061,8.66140028 3.01934926,8.63162549 3.00349,8.57969 C2.97136,8.50178 2.92943,8.428 2.88967,8.3482 C3.21117444,8.06377421 3.38154006,7.64561346 3.35034,7.21749 C3.35734,7.02709 3.35153,6.83627 3.35153,6.62949 L3.10492,6.62949 C2.86041,6.62949 2.6159,6.63264 2.37153,6.62774 C2.29327,6.62613 2.26373,6.65231 2.24189,6.72756 C2.05303036,7.44468975 1.59902798,8.06341091 0.9716,8.45873 C0.84455,8.53902 0.70217,8.59495 0.55804,8.66642 Z" id="路径"></path>
                                <path d="M0.40117,5.53028 L0.40117,5.06947 L1.53377,5.06947 L1.32671,4.44927 L1.63821,4.44927 C1.81888,4.44927 1.99969,4.45228 2.18022,4.44766 C2.20577724,4.44322122 2.23204083,4.44936409 2.25297814,4.46467763 C2.27391544,4.47999117 2.28772687,4.50315916 2.29124,4.52886 C2.33527,4.67425 2.39162,4.81586 2.43425,4.96174 C2.43848489,4.99590424 2.4564395,5.02687441 2.48398323,5.04752561 C2.51152697,5.06817681 2.54628825,5.07673092 2.58027,5.07122 C3.87709,5.06767333 5.17391,5.06739333 6.47073,5.07038 C6.54507,5.07038 6.58329,5.05295 6.60499,4.97679 C6.6486,4.82398 6.70096,4.67341 6.75661,4.52452 C6.76809,4.49365 6.80946,4.45312 6.83767,4.45256 C7.12467,4.44731 7.41104,4.44934 7.71666,4.44934 L7.51219,5.06534 L8.48519,5.06534 L8.48519,5.53035 L0.40117,5.53028 Z" id="路径"></path>
                            </g>
                            <g transform="translate(4.900000, 30.100000)" fill="#707070">
                                <path d="M1.64556,1.94495 C1.95111,1.94495 2.2379,1.94292 2.52448,1.94817 C2.5614218,1.95771822 2.59180496,1.98393469 2.60666,2.01908 C2.70531333,2.27285333 2.80035,2.52802667 2.89177,2.7846 C2.9049946,2.84430792 2.96209595,2.88365866 3.0226,2.87476 C3.97208,2.87214667 4.92158333,2.87214667 5.87111,2.87476 C5.93158234,2.88378073 5.98878192,2.8446506 6.00229,2.78502 C6.0928,2.53204 6.19129,2.28186 6.28159,2.02902 C6.29273181,1.9728432 6.34595218,1.93525959 6.40262,1.94355 C6.67863,1.94747 6.95471,1.94516 7.2506,1.94516 L6.8999,2.86818 L8.1739,2.86818 C8.17635,2.9162 8.17971,2.95022 8.17971,2.98424 C8.17971,4.36954 8.17943,5.75484 8.17887,7.14014 C8.19979726,7.52272864 8.07931228,7.89965531 7.84035,8.19917 C7.63557894,8.44904604 7.33752485,8.60430731 7.0154,8.6289 C6.97404024,8.62758469 6.93547297,8.60770969 6.9104,8.57479 C6.86529046,8.49718735 6.82455684,8.4171223 6.78839,8.33497 C7.14229543,8.00505079 7.31493853,7.52443495 7.25186,7.04473 C7.25627,5.84367 7.2534,4.64254 7.25305,3.44148 C7.25305,3.41397 7.24913,3.38646 7.24647,3.35244 L1.64521,3.35244 L1.64521,3.49244 C1.64521,5.1541 1.64521,6.81576 1.64521,8.47742 C1.64521,8.66187 1.66663,8.63793 1.47875,8.63877 C1.22745,8.63996 0.97622,8.63877 0.71533,8.63877 L0.71533,2.87609 L1.98933,2.87609 L1.64556,1.94495 Z" id="路径"></path>
                                <path d="M2.27017,5.29725 C2.26105801,5.29435392 2.25167723,5.29238396 2.24217,5.29137 C1.92717,5.36228 1.92717,5.36228 1.80292,5.03482 C2.06729498,4.81641446 2.29680499,4.5589563 2.48353,4.27133 C2.59301,4.09843 2.68786,3.91601 2.78362,3.73492 C2.80317963,3.68188098 2.85591335,3.64858152 2.91221,3.65372 C3.18486,3.65799 3.45765,3.65533 3.73044,3.65575 C3.75753,3.65575 3.78469,3.6596 3.82235,3.66275 C3.66295632,4.23749491 3.29311336,4.73121027 2.78635,5.04574 L5.96722,5.04574 L5.06961,3.65568 L5.28437,3.65568 C5.52524,3.65568 5.76618,3.6533 6.00698,3.65813 C6.0504214,3.65941491 6.09136254,3.678744 6.11996,3.71147 C6.43615,4.19384 6.748,4.67908 7.06041,5.1639 C7.06597168,5.17789183 7.07000835,5.19244261 7.07245,5.2073 L6.62872,5.2073 L6.62872,8.0073 L2.27017,8.0073 L2.27017,5.29725 Z M3.20908,7.53557 L5.68316,7.53557 L5.68316,5.52979 L3.20873,5.52979 L3.20908,7.53557 Z" id="形状" fill-rule="nonzero"></path>
                                <polygon id="路径" points="0.40208 1.62197 0.40208 1.16179 3.97544 1.16179 3.97544 0.54579 4.91617 0.54579 4.91617 1.1536 8.48834 1.1536 8.48834 1.62169"></polygon>
                            </g>
                            <g transform="translate(4.900000, 10.500000)" fill="#707070">
                                <path d="M8.17306,8.10579 L0.71337,8.10579 L0.71337,5.15998 L8.17306,5.15998 L8.17306,8.10579 Z M1.64983,6.39422 L3.97061,6.39422 L3.97061,5.62779 L1.64983,5.62779 L1.64983,6.39422 Z M7.24416,6.39366 L7.24416,5.62863 L4.9238,5.62863 L4.9238,6.39366 L7.24416,6.39366 Z M1.65305,6.87442 L1.65305,7.63224 L3.96956,7.63224 L3.96956,6.87379 L1.65305,6.87442 Z M4.92394,7.63112 L7.24717,7.63112 L7.24717,6.87876 L4.92394,6.87876 L4.92394,7.63112 Z" id="形状" fill-rule="nonzero"></path>
                                <path d="M7.87122,4.74404 L1.02375,4.74404 L1.02375,2.91648 L7.87122,2.91648 L7.87122,4.74404 Z M1.95202,4.2714 L6.93035,4.2714 L6.93035,3.38639 L1.95202,3.38639 L1.95202,4.2714 Z" id="形状" fill-rule="nonzero"></path>
                                <polygon id="路径" points="4.91512 0.6335 8.33539 0.6335 8.33539 1.7185 7.40726 1.7185 7.40726 1.11279 1.49016 1.11279 1.49016 1.71983 0.55517 1.71983 0.55517 0.63483 3.97817 0.63483 3.97817 0.17479 4.9154 0.17479"></polygon>
                                <polygon id="路径" points="8.17558 2.04379 8.17558 2.49361 0.71281 2.49361 0.71281 2.04379"></polygon>
                            </g>
                        </g>
                    </g>
                </g>
            </g>
        </g>
    </g>
</svg>